<?xml version="1.0" encoding="UTF-8" standalone="no"?>
<!-- Created with Inkscape (http://www.inkscape.org/) -->

<svg
   width="213.36mm"
   height="128.5mm"
   viewBox="0 0 213.36 128.5"
   version="1.1"
   id="svg5"
   xml:space="preserve"
   inkscape:version="1.2 (dc2aedaf03, 2022-05-15)"
   sodipodi:docname="16n.svg"
   xmlns:inkscape="http://www.inkscape.org/namespaces/inkscape"
   xmlns:sodipodi="http://sodipodi.sourceforge.net/DTD/sodipodi-0.dtd"
   xmlns="http://www.w3.org/2000/svg"
   xmlns:svg="http://www.w3.org/2000/svg"><sodipodi:namedview
     id="namedview7"
     pagecolor="#ffffff"
     bordercolor="#000000"
     borderopacity="0.25"
     inkscape:showpageshadow="2"
     inkscape:pageopacity="0.0"
     inkscape:pagecheckerboard="0"
     inkscape:deskcolor="#d1d1d1"
     inkscape:document-units="mm"
     showgrid="false"
     showguides="true"
     inkscape:zoom="1.621875"
     inkscape:cx="216.41618"
     inkscape:cy="289.17148"
     inkscape:window-width="1920"
     inkscape:window-height="1017"
     inkscape:window-x="1072"
     inkscape:window-y="302"
     inkscape:window-maximized="1"
     inkscape:current-layer="layer2"><inkscape:page
       x="0"
       y="0"
       width="213.36"
       height="128.5"
       id="page829" /><inkscape:page
       x="264"
       y="0"
       width="420.15833"
       height="297.03894"
       id="page831" /><sodipodi:guide
       position="12.739384,100.66744"
       orientation="1,0"
       id="guide1964"
       inkscape:locked="false" /><sodipodi:guide
       position="68.289164,19.145051"
       orientation="0,-1"
       id="guide1982"
       inkscape:locked="false" /><sodipodi:guide
       position="241.49079,100.66744"
       orientation="1,0"
       id="guide2130"
       inkscape:locked="false" /><sodipodi:guide
       position="95.512549,101.04591"
       orientation="0,-1"
       id="guide2162"
       inkscape:locked="false" /><sodipodi:guide
       position="89.98974,33.621353"
       orientation="0,-1"
       id="guide2164"
       inkscape:locked="false" /><sodipodi:guide
       position="-10.612505,56.519527"
       orientation="0,-1"
       id="guide4586"
       inkscape:locked="false" /></sodipodi:namedview><defs
     id="defs2"><clipPath
       clipPathUnits="userSpaceOnUse"
       id="clipPath245"><path
         d="M 0,842 H 1191 V 0 H 0 Z"
         id="path243" /></clipPath></defs><g
     inkscape:label="Layer 1"
     inkscape:groupmode="layer"
     id="layer1"
     style="display:inline;fill:#000000"
     sodipodi:insensitive="true"><rect
       style="fill:#cccccc;stroke-width:0.264583"
       id="rect2220"
       width="254"
       height="128.5"
       x="0"
       y="0" /><g
       aria-label="flightlog"
       id="text3796"
       style="font-size:3.175px;display:inline;stroke-width:0.264583"
       inkscape:label="text3796"
       transform="translate(-12.380536,-0.4744134)"><path
         d="m 114.36237,122.68218 h -0.0155 q -0.0481,-0.014 -0.12557,-0.0279 -0.0775,-0.0155 -0.13643,-0.0155 -0.18758,0 -0.27285,0.0837 -0.0837,0.0822 -0.0837,0.29921 v 0.0589 h 0.52555 v 0.24495 h -0.51625 v 1.48673 h -0.29146 v -1.48673 h -0.19688 v -0.24495 h 0.19688 v -0.0574 q 0,-0.30851 0.15348,-0.47284 0.15348,-0.16588 0.44339,-0.16588 0.0977,0 0.17518,0.009 0.0791,0.009 0.14418,0.0217 z"
         id="path4363" /><path
         d="m 114.84141,124.81229 h -0.29146 v -2.41226 h 0.29146 z"
         id="path4365" /><path
         d="m 115.73128,122.7907 h -0.32867 v -0.3023 h 0.32867 z m -0.0186,2.02159 h -0.29145 v -1.73168 h 0.29145 z"
         id="path4367" /><path
         d="m 117.69395,124.6154 q 0,0.44028 -0.19999,0.64647 -0.19999,0.20619 -0.61547,0.20619 -0.13797,0 -0.26975,-0.0202 -0.13022,-0.0186 -0.25735,-0.0543 v -0.29766 h 0.0155 q 0.0713,0.0279 0.22634,0.0682 0.15503,0.0419 0.31006,0.0419 0.14883,0 0.24649,-0.0357 0.0977,-0.0357 0.15193,-0.0992 0.0543,-0.0605 0.0775,-0.14573 0.0233,-0.0853 0.0233,-0.19069 v -0.15813 q -0.13177,0.10542 -0.2527,0.15813 -0.11937,0.0512 -0.3054,0.0512 -0.31006,0 -0.493,-0.22324 -0.18138,-0.22479 -0.18138,-0.63252 0,-0.22324 0.062,-0.38447 0.0636,-0.16278 0.17208,-0.28061 0.10077,-0.11007 0.24495,-0.17053 0.14418,-0.062 0.2868,-0.062 0.15038,0 0.25115,0.031 0.10232,0.0295 0.21549,0.0915 l 0.0186,-0.0744 h 0.27285 z m -0.29146,-0.27905 v -0.94413 q -0.11627,-0.0527 -0.21704,-0.0744 -0.0992,-0.0233 -0.19844,-0.0233 -0.24029,0 -0.37827,0.16123 -0.13797,0.16123 -0.13797,0.46819 0,0.29145 0.10232,0.44183 0.10231,0.15038 0.33951,0.15038 0.12712,0 0.25425,-0.0481 0.12867,-0.0496 0.23564,-0.13177 z"
         id="path4369" /><path
         d="m 119.71553,124.81229 h -0.29146 v -0.98599 q 0,-0.11937 -0.0139,-0.22324 -0.014,-0.10542 -0.0512,-0.16433 -0.0388,-0.0651 -0.11162,-0.0961 -0.0729,-0.0326 -0.18914,-0.0326 -0.11937,0 -0.24959,0.0589 -0.13023,0.0589 -0.2496,0.15038 v 1.29295 h -0.29145 V 122.4 h 0.29145 v 0.87282 q 0.13643,-0.11318 0.28215,-0.17674 0.14573,-0.0636 0.29921,-0.0636 0.2806,0 0.42788,0.16898 0.14728,0.16898 0.14728,0.48679 z"
         id="path4371" /><path
         d="m 121.1759,124.79678 q -0.0822,0.0217 -0.17983,0.0357 -0.0961,0.0139 -0.17208,0.0139 -0.2651,0 -0.40308,-0.14262 -0.13797,-0.14263 -0.13797,-0.45734 v -0.92087 h -0.19689 v -0.24495 h 0.19689 v -0.49764 h 0.29145 v 0.49764 h 0.60151 v 0.24495 h -0.60151 v 0.78909 q 0,0.13643 0.006,0.21394 0.006,0.076 0.0434,0.14263 0.0341,0.062 0.093,0.0915 0.0605,0.0279 0.18293,0.0279 0.0713,0 0.14883,-0.0202 0.0775,-0.0217 0.11162,-0.0357 h 0.0155 z"
         id="path4373" /><path
         d="m 121.82238,124.81229 h -0.29146 v -2.41226 h 0.29146 z"
         id="path4375" /><path
         d="m 123.87496,123.94722 q 0,0.42323 -0.21704,0.66818 -0.21704,0.24495 -0.58136,0.24495 -0.36742,0 -0.58446,-0.24495 -0.21549,-0.24495 -0.21549,-0.66818 0,-0.42323 0.21549,-0.66817 0.21704,-0.2465 0.58446,-0.2465 0.36432,0 0.58136,0.2465 0.21704,0.24494 0.21704,0.66817 z m -0.30075,0 q 0,-0.33641 -0.13178,-0.49919 -0.13177,-0.16433 -0.36587,-0.16433 -0.23719,0 -0.36897,0.16433 -0.13022,0.16278 -0.13022,0.49919 0,0.32556 0.13177,0.49455 0.13178,0.16743 0.36742,0.16743 0.23255,0 0.36432,-0.16588 0.13333,-0.16743 0.13333,-0.4961 z"
         id="path4377" /><path
         d="m 125.73067,124.6154 q 0,0.44028 -0.19999,0.64647 -0.19999,0.20619 -0.61547,0.20619 -0.13797,0 -0.26975,-0.0202 -0.13022,-0.0186 -0.25735,-0.0543 v -0.29766 h 0.0155 q 0.0713,0.0279 0.22635,0.0682 0.15503,0.0419 0.31006,0.0419 0.14882,0 0.24649,-0.0357 0.0977,-0.0357 0.15193,-0.0992 0.0543,-0.0605 0.0775,-0.14573 0.0233,-0.0853 0.0233,-0.19069 v -0.15813 q -0.13177,0.10542 -0.2527,0.15813 -0.11937,0.0512 -0.3054,0.0512 -0.31006,0 -0.493,-0.22324 -0.18138,-0.22479 -0.18138,-0.63252 0,-0.22324 0.062,-0.38447 0.0636,-0.16278 0.17208,-0.28061 0.10077,-0.11007 0.24495,-0.17053 0.14418,-0.062 0.2868,-0.062 0.15038,0 0.25115,0.031 0.10232,0.0295 0.21549,0.0915 l 0.0186,-0.0744 h 0.27286 z m -0.29146,-0.27905 v -0.94413 q -0.11627,-0.0527 -0.21704,-0.0744 -0.0992,-0.0233 -0.19844,-0.0233 -0.24029,0 -0.37827,0.16123 -0.13798,0.16123 -0.13798,0.46819 0,0.29145 0.10232,0.44183 0.10232,0.15038 0.33952,0.15038 0.12712,0 0.25425,-0.0481 0.12867,-0.0496 0.23564,-0.13177 z"
         id="path4379" /></g><g
       aria-label="16n faderbank"
       id="text4284"
       style="font-size:3.175px;display:inline;stroke-width:0.264583"
       inkscape:label="text3796"
       transform="translate(-12.809976,1.1433775)"><path
         d="m 109.37354,6.4597778 h -1.24953 V 6.2241333 h 0.48059 V 4.6769409 h -0.48059 V 4.4661011 q 0.0977,0 0.20928,-0.015503 0.11163,-0.017053 0.16899,-0.048059 0.0713,-0.038757 0.11162,-0.097669 0.0419,-0.060461 0.0481,-0.1612304 h 0.24029 v 2.0804931 h 0.47129 z"
         id="path4338" /><path
         d="m 111.5579,5.7109863 q 0,0.3519165 -0.23254,0.5751587 -0.23099,0.2216919 -0.56741,0.2216919 -0.17053,0 -0.31006,-0.05271 -0.13952,-0.05271 -0.24649,-0.1565796 -0.13333,-0.1286743 -0.20619,-0.3410645 -0.0713,-0.2123901 -0.0713,-0.5115967 0,-0.306958 0.0651,-0.5441528 0.0667,-0.2371948 0.21084,-0.4216797 0.13642,-0.1751831 0.35191,-0.2728515 0.21549,-0.099219 0.5023,-0.099219 0.0915,0 0.15348,0.00775 0.062,0.00775 0.12557,0.027905 V 4.439744 h -0.0155 q -0.0434,-0.023254 -0.13178,-0.043408 -0.0868,-0.021704 -0.17828,-0.021704 -0.33331,0 -0.53175,0.2092896 -0.19844,0.2077392 -0.23099,0.5627563 0.13022,-0.079065 0.25579,-0.1193725 0.12713,-0.041858 0.29301,-0.041858 0.14728,0 0.2589,0.027905 0.11317,0.026355 0.23099,0.1085205 0.13643,0.094568 0.20464,0.2387451 0.0698,0.1441773 0.0698,0.3503662 z m -0.31471,0.012402 q 0,-0.1441773 -0.0434,-0.2387451 -0.0419,-0.094568 -0.13953,-0.1643311 -0.0713,-0.049609 -0.15813,-0.065112 -0.0868,-0.015503 -0.18138,-0.015503 -0.13178,0 -0.24495,0.031006 -0.11317,0.031006 -0.23254,0.096118 -0.003,0.034107 -0.005,0.066663 -0.002,0.031006 -0.002,0.079065 0,0.2449463 0.0496,0.3875733 0.0512,0.1410766 0.13953,0.2232422 0.0713,0.068213 0.15348,0.100769 0.0837,0.031006 0.18138,0.031006 0.2248,0 0.35347,-0.1364258 0.12867,-0.1379761 0.12867,-0.3953247 z"
         id="path4340" /><path
         d="m 113.46476,6.4597778 h -0.29145 V 5.4737915 q 0,-0.1193725 -0.0139,-0.2232422 -0.014,-0.1054199 -0.0512,-0.164331 -0.0388,-0.065112 -0.11162,-0.096118 -0.0729,-0.032556 -0.18914,-0.032556 -0.11937,0 -0.2496,0.058911 -0.13022,0.058911 -0.24959,0.1503784 V 6.459778 H 112.0168 V 4.7281006 h 0.29146 v 0.1922363 q 0.13642,-0.1131713 0.28215,-0.1767334 0.14573,-0.063562 0.29921,-0.063562 0.2806,0 0.42788,0.168982 0.14727,0.1689819 0.14727,0.4867919 z"
         id="path4342" /><path
         d="m 116.07391,4.3296753 h -0.0155 q -0.0481,-0.013953 -0.12557,-0.027905 -0.0775,-0.015503 -0.13642,-0.015503 -0.18759,0 -0.27286,0.083716 -0.0837,0.082166 -0.0837,0.2992066 v 0.058911 h 0.52555 v 0.2449463 h -0.51625 V 6.4597781 H 115.1577 V 4.9730469 h -0.1969 V 4.7281006 h 0.19688 v -0.057361 q 0,-0.3085083 0.15348,-0.4728394 0.15348,-0.1658813 0.44339,-0.1658813 0.0977,0 0.17518,0.0093 0.0791,0.0093 0.14418,0.021704 z"
         id="path4344" /><path
         d="m 117.60405,6.4597778 h -0.28991 V 6.275293 q -0.0388,0.026355 -0.10542,0.074414 -0.0651,0.046509 -0.12712,0.074414 -0.0729,0.035657 -0.16743,0.058911 -0.0946,0.024805 -0.2217,0.024805 -0.23409,0 -0.39687,-0.1550293 -0.16278,-0.1550293 -0.16278,-0.3953247 0,-0.1968872 0.0837,-0.31781 0.0853,-0.1224732 0.24185,-0.1922364 0.15813,-0.069763 0.37982,-0.094568 0.22169,-0.024805 0.47594,-0.037207 v -0.044958 q 0,-0.099219 -0.0356,-0.164331 -0.0341,-0.065112 -0.0992,-0.1023193 -0.062,-0.035657 -0.14883,-0.048059 -0.0868,-0.012402 -0.18139,-0.012402 -0.11472,0 -0.25579,0.031006 -0.14108,0.029456 -0.29146,0.086816 h -0.0155 v -0.296106 q 0.0853,-0.023254 0.24649,-0.05116 0.16123,-0.027905 0.31781,-0.027905 0.18294,0 0.31781,0.031006 0.13643,0.029456 0.23565,0.1023193 0.0977,0.071313 0.14883,0.1844849 0.0512,0.1131713 0.0512,0.280603 z M 117.31414,6.0334473 V 5.5513062 q -0.13332,0.00775 -0.31471,0.023254 -0.17983,0.015503 -0.28525,0.044958 -0.12558,0.035657 -0.20309,0.111621 -0.0775,0.074414 -0.0775,0.206189 0,0.1488281 0.0899,0.2247925 0.0899,0.074414 0.2744,0.074414 0.15348,0 0.28061,-0.058911 0.12712,-0.060461 0.23564,-0.1441764 z"
         id="path4346" /><path
         d="m 119.56982,6.4597778 h -0.29146 V 6.2783936 q -0.12557,0.1085205 -0.262,0.1689819 -0.13642,0.060461 -0.2961,0.060461 -0.31006,0 -0.493,-0.2387451 -0.18138,-0.2387451 -0.18138,-0.6619751 0,-0.2201416 0.062,-0.3922241 0.0636,-0.1720825 0.17053,-0.2930054 0.10542,-0.1178222 0.24495,-0.179834 0.14108,-0.062012 0.29146,-0.062012 0.13642,0 0.24184,0.029456 0.10542,0.027905 0.22169,0.088367 V 4.047522 h 0.29146 z M 119.27836,6.0334473 V 5.0397095 q -0.11782,-0.05271 -0.21084,-0.072864 -0.093,-0.020154 -0.20309,-0.020154 -0.24494,0 -0.38137,0.1705322 -0.13642,0.1705323 -0.13642,0.4836914 0,0.3085083 0.10542,0.4697388 0.10542,0.1596802 0.33796,0.1596802 0.12402,0 0.25115,-0.05426 0.12712,-0.055811 0.23719,-0.1426268 z"
         id="path4348" /><path
         d="m 121.59295,5.6241699 h -1.27589 q 0,0.1596802 0.0481,0.2790528 0.0481,0.1178222 0.13177,0.1937866 0.0806,0.074414 0.19069,0.1116211 0.11162,0.037207 0.24495,0.037207 0.17673,0 0.35501,-0.069763 0.17984,-0.071314 0.2558,-0.1395263 h 0.0155 v 0.31781 q -0.14727,0.062012 -0.30075,0.1038696 -0.15348,0.041858 -0.32246,0.041858 -0.43098,0 -0.67283,-0.2325439 -0.24185,-0.2340942 -0.24185,-0.6635254 0,-0.4247802 0.231,-0.6743774 0.23254,-0.2495972 0.61081,-0.2495972 0.35037,0 0.5395,0.2046387 0.19069,0.2046387 0.19069,0.5813599 z m -0.2837,-0.2232421 q -0.002,-0.2294434 -0.11627,-0.3550171 -0.11318,-0.1255738 -0.34572,-0.1255738 -0.23409,0 -0.37362,0.1379761 -0.13798,0.1379761 -0.15658,0.3426148 z"
         id="path4350" /><path
         d="m 123.11534,5.0459107 h -0.0155 q -0.0651,-0.015503 -0.12713,-0.021704 -0.0605,-0.00775 -0.14418,-0.00775 -0.13487,0 -0.26044,0.060461 -0.12558,0.058911 -0.24185,0.153479 V 6.459779 h -0.29146 V 4.7281006 h 0.29146 v 0.2557983 q 0.17363,-0.1395263 0.30541,-0.1968872 0.13332,-0.058911 0.2713,-0.058911 0.076,0 0.11007,0.00465 0.0341,0.0031 0.10232,0.013953 z"
         id="path4352" /><path
         d="m 124.91368,5.5807617 q 0,0.217041 -0.062,0.3906739 -0.0605,0.1736328 -0.16433,0.291455 -0.11008,0.1224732 -0.24185,0.1844849 -0.13178,0.060461 -0.28991,0.060461 -0.14727,0 -0.25734,-0.035657 -0.11007,-0.034107 -0.21704,-0.093018 l -0.0186,0.080615 h -0.27285 V 4.047522 h 0.29146 v 0.8619629 q 0.12247,-0.1007691 0.26044,-0.1643311 0.13798,-0.065112 0.31006,-0.065112 0.30696,0 0.48369,0.2356446 0.17829,0.2356445 0.17829,0.6650756 z m -0.30076,0.00775 q 0,-0.3100586 -0.10232,-0.4697388 -0.10232,-0.1612304 -0.33021,-0.1612304 -0.12712,0 -0.25735,0.05581 -0.13022,0.05426 -0.24184,0.1410767 v 0.9921875 q 0.12402,0.05581 0.21239,0.077515 0.0899,0.021704 0.20308,0.021704 0.24185,0 0.37828,-0.1581299 0.13797,-0.1596801 0.13797,-0.4991941 z"
         id="path4354" /><path
         d="m 126.71357,6.4597778 h -0.28991 V 6.275293 q -0.0387,0.026355 -0.10542,0.074414 -0.0651,0.046509 -0.12712,0.074414 -0.0729,0.035657 -0.16743,0.058911 -0.0946,0.024805 -0.22169,0.024805 -0.2341,0 -0.39688,-0.1550293 -0.16278,-0.1550293 -0.16278,-0.3953247 0,-0.1968872 0.0837,-0.31781 0.0853,-0.1224732 0.24184,-0.1922364 0.15813,-0.069763 0.37982,-0.094568 0.2217,-0.024805 0.47594,-0.037207 v -0.044958 q 0,-0.099219 -0.0357,-0.164331 -0.0341,-0.065112 -0.0992,-0.1023193 -0.062,-0.035657 -0.14883,-0.048059 -0.0868,-0.012402 -0.18138,-0.012402 -0.11473,0 -0.2558,0.031006 -0.14108,0.029456 -0.29146,0.086816 h -0.0155 v -0.296106 q 0.0853,-0.023254 0.2465,-0.05116 0.16123,-0.027905 0.31781,-0.027905 0.18293,0 0.31781,0.031006 0.13642,0.029456 0.23564,0.1023193 0.0977,0.071313 0.14883,0.1844849 0.0512,0.1131713 0.0512,0.280603 z M 126.42366,6.0334473 V 5.5513062 q -0.13332,0.00775 -0.31471,0.023254 -0.17983,0.015503 -0.28525,0.044958 -0.12557,0.035657 -0.20309,0.111621 -0.0775,0.074414 -0.0775,0.206189 0,0.1488281 0.0899,0.2247925 0.0899,0.074414 0.27441,0.074414 0.15348,0 0.2806,-0.058911 0.12712,-0.060461 0.23564,-0.1441764 z"
         id="path4356" /><path
         d="m 128.72275,6.4597778 h -0.29146 V 5.4737915 q 0,-0.1193725 -0.0139,-0.2232422 -0.0139,-0.1054199 -0.0512,-0.164331 -0.0388,-0.065112 -0.11162,-0.096118 -0.0729,-0.032556 -0.18914,-0.032556 -0.11937,0 -0.24959,0.058911 -0.13023,0.058911 -0.2496,0.1503784 V 6.459778 h -0.29146 V 4.7281006 h 0.29146 v 0.1922363 q 0.13643,-0.1131713 0.28215,-0.1767334 0.14573,-0.063562 0.29921,-0.063562 0.2806,0 0.42788,0.168982 0.14728,0.1689819 0.14728,0.4867919 z"
         id="path4358" /><path
         d="m 130.85595,6.4597778 h -0.38447 l -0.69453,-0.7580932 -0.18914,0.179834 v 0.5782592 h -0.29145 V 4.047522 h 0.29145 v 1.5471924 l 0.84181,-0.8666138 h 0.36742 l -0.8046,0.7999512 z"
         id="path4360" /></g></g><g
     inkscape:groupmode="layer"
     id="layer2"
     inkscape:label="components"
     style="display:none;fill:#0000ff"><circle
       style="fill:#0000ff;stroke-width:0.264583"
       id="path2166"
       cx="9.179985"
       cy="109.35495"
       r="2.5"
       inkscape:label="out1" /><circle
       style="fill:#0000ff;stroke-width:0.264583"
       id="circle4645"
       cx="22.179979"
       cy="109.35495"
       r="2.5"
       inkscape:label="out2" /><circle
       style="fill:#0000ff;stroke-width:0.264583"
       id="circle4647"
       cx="35.179981"
       cy="109.35495"
       r="2.5"
       inkscape:label="out3" /><circle
       style="fill:#0000ff;stroke-width:0.264583"
       id="circle4649"
       cx="48.179981"
       cy="109.35495"
       r="2.5"
       inkscape:label="out4" /><circle
       style="fill:#0000ff;stroke-width:0.264583"
       id="circle4651"
       cx="61.179985"
       cy="109.35495"
       r="2.5"
       inkscape:label="out5" /><circle
       style="fill:#0000ff;stroke-width:0.264583"
       id="circle4653"
       cx="74.179985"
       cy="109.35495"
       r="2.5"
       inkscape:label="out6" /><circle
       style="fill:#0000ff;stroke-width:0.264583"
       id="circle4655"
       cx="87.179985"
       cy="109.35495"
       r="2.5"
       inkscape:label="out7" /><circle
       style="fill:#0000ff;stroke-width:0.264583"
       id="circle4657"
       cx="100.17999"
       cy="109.35495"
       r="2.5"
       inkscape:label="out8" /><circle
       style="fill:#0000ff;stroke-width:0.264583"
       id="circle4659"
       cx="113.17999"
       cy="109.35495"
       r="2.5"
       inkscape:label="out9" /><circle
       style="fill:#0000ff;stroke-width:0.264583"
       id="circle4661"
       cx="126.17999"
       cy="109.35495"
       r="2.5"
       inkscape:label="out10" /><circle
       style="fill:#0000ff;stroke-width:0.264583"
       id="circle4663"
       cx="139.18002"
       cy="109.35495"
       r="2.5"
       inkscape:label="out11" /><circle
       style="fill:#0000ff;stroke-width:0.264583"
       id="circle4665"
       cx="152.18002"
       cy="109.35495"
       r="2.5"
       inkscape:label="out12" /><circle
       style="fill:#0000ff;stroke-width:0.264583"
       id="circle4667"
       cx="165.18002"
       cy="109.35495"
       r="2.5"
       inkscape:label="out13" /><circle
       style="fill:#0000ff;stroke-width:0.264583"
       id="circle4669"
       cx="178.18002"
       cy="109.35495"
       r="2.5"
       inkscape:label="out14" /><circle
       style="fill:#0000ff;stroke-width:0.264583"
       id="circle4671"
       cx="191.18002"
       cy="109.35495"
       r="2.5"
       inkscape:label="out15" /><circle
       style="fill:#0000ff;stroke-width:0.264583"
       id="circle4673"
       cx="204.18002"
       cy="109.35495"
       r="2.5"
       inkscape:label="out16" /><circle
       style="fill:#ff0000;stroke-width:0.264583"
       id="circle4675"
       cx="22.179979"
       cy="72.182014"
       r="2.5"
       inkscape:label="fader2" /><circle
       style="fill:#ff0000;stroke-width:0.264583"
       id="circle4677"
       cx="35.179981"
       cy="72.182014"
       r="2.5"
       inkscape:label="fader3" /><circle
       style="fill:#ff0000;stroke-width:0.264583"
       id="circle4740"
       cx="48.179981"
       cy="72.182014"
       r="2.5"
       inkscape:label="fader4" /><circle
       style="fill:#ff0000;stroke-width:0.264583"
       id="circle4742"
       cx="61.179985"
       cy="72.182014"
       r="2.5"
       inkscape:label="fader5" /><circle
       style="fill:#ff0000;stroke-width:0.264583"
       id="circle4744"
       cx="74.179985"
       cy="72.182014"
       r="2.5"
       inkscape:label="fader6" /><circle
       style="fill:#ff0000;stroke-width:0.264583"
       id="circle4746"
       cx="87.179985"
       cy="72.182014"
       r="2.5"
       inkscape:label="fader7" /><circle
       style="fill:#ff0000;stroke-width:0.264583"
       id="circle4748"
       cx="100.17999"
       cy="72.182014"
       r="2.5"
       inkscape:label="fader8" /><circle
       style="fill:#ff0000;stroke-width:0.264583"
       id="circle4750"
       cx="113.17999"
       cy="72.182014"
       r="2.5"
       inkscape:label="fader9" /><circle
       style="fill:#ff0000;stroke-width:0.264583"
       id="circle4752"
       cx="126.17999"
       cy="72.182014"
       r="2.5"
       inkscape:label="fader10" /><circle
       style="fill:#ff0000;stroke-width:0.264583"
       id="circle4754"
       cx="139.18002"
       cy="72.182014"
       r="2.5"
       inkscape:label="fader11" /><circle
       style="fill:#ff0000;stroke-width:0.264583"
       id="circle4756"
       cx="152.18002"
       cy="72.182014"
       r="2.5"
       inkscape:label="fader12" /><circle
       style="fill:#ff0000;stroke-width:0.264583"
       id="circle4758"
       cx="165.18002"
       cy="72.182014"
       r="2.5"
       inkscape:label="fader13" /><circle
       style="fill:#ff0000;stroke-width:0.264583"
       id="circle4760"
       cx="178.18002"
       cy="72.182014"
       r="2.5"
       inkscape:label="fader14" /><circle
       style="fill:#ff0000;stroke-width:0.264583"
       id="circle4762"
       cx="191.18002"
       cy="72.182014"
       r="2.5"
       inkscape:label="fader15" /><circle
       style="fill:#ff0000;stroke-width:0.264583"
       id="circle4764"
       cx="204.18002"
       cy="72.182014"
       r="2.5"
       inkscape:label="fader16" /><circle
       style="display:inline;fill:#ff0000;stroke-width:0.264583"
       id="path4588"
       cx="9.179985"
       cy="72.182014"
       r="2.5"
       inkscape:label="fader1" /><rect
       style="fill:#ffff00;stroke-width:0.264583"
       id="rect283"
       width="40.639999"
       height="29.011999"
       x="86.360001"
       y="13.48" /></g></svg>
